TITLE ""
FILE "P1Q_t_0839-0848.mp3" MP3
  TRACK 01 AUDIO
    TITLE "P1Q_t_0839-0848_01"
    INDEX 01 00:00:00
  TRACK 02 AUDIO
    TITLE "P1Q_t_0839-0848_02"
    INDEX 01 00:01:29
  TRACK 03 AUDIO
    TITLE "P1Q_t_0839-0848_03"
    INDEX 01 00:01:51
  TRACK 04 AUDIO
    TITLE "P1Q_t_0839-0848_04"
    INDEX 01 00:04:22
  TRACK 05 AUDIO
    TITLE "P1Q_t_0839-0848_05"
    INDEX 01 00:04:41
  TRACK 06 AUDIO
    TITLE "P1Q_t_0839-0848_06"
    INDEX 01 00:08:67
  TRACK 07 AUDIO
    TITLE "P1Q_t_0839-0848_07"
    INDEX 01 00:09:39
  TRACK 08 AUDIO
    TITLE "P1Q_t_0839-0848_08"
    INDEX 01 00:10:50
  TRACK 09 AUDIO
    TITLE "P1Q_t_0839-0848_09"
    INDEX 01 00:11:00
  TRACK 10 AUDIO
    TITLE "P1Q_t_0839-0848_10"
    INDEX 01 00:13:19
  TRACK 11 AUDIO
    TITLE "P1Q_t_0839-0848_11"
    INDEX 01 00:13:40
  TRACK 12 AUDIO
    TITLE "P1Q_t_0839-0848_12"
    INDEX 01 00:18:22
  TRACK 13 AUDIO
    TITLE "P1Q_t_0839-0848_13"
    INDEX 01 00:18:69
  TRACK 14 AUDIO
    TITLE "P1Q_t_0839-0848_14"
    INDEX 01 00:20:29
  TRACK 15 AUDIO
    TITLE "P1Q_t_0839-0848_15"
    INDEX 01 00:20:52
  TRACK 16 AUDIO
    TITLE "P1Q_t_0839-0848_16"
    INDEX 01 00:21:61
  TRACK 17 AUDIO
    TITLE "P1Q_t_0839-0848_17"
    INDEX 01 00:22:06
  TRACK 18 AUDIO
    TITLE "P1Q_t_0839-0848_18"
    INDEX 01 00:28:07
  TRACK 19 AUDIO
    TITLE "P1Q_t_0839-0848_19"
    INDEX 01 00:28:52
  TRACK 20 AUDIO
    TITLE "P1Q_t_0839-0848_20"
    INDEX 01 00:30:00
  TRACK 21 AUDIO
    TITLE "P1Q_t_0839-0848_21"
    INDEX 01 00:30:23
  TRACK 22 AUDIO
    TITLE "P1Q_t_0839-0848_22"
    INDEX 01 00:31:42
  TRACK 23 AUDIO
    TITLE "P1Q_t_0839-0848_23"
    INDEX 01 00:31:64
  TRACK 24 AUDIO
    TITLE "P1Q_t_0839-0848_24"
    INDEX 01 00:36:61
  TRACK 25 AUDIO
    TITLE "P1Q_t_0839-0848_25"
    INDEX 01 00:37:31
  TRACK 26 AUDIO
    TITLE "P1Q_t_0839-0848_26"
    INDEX 01 00:38:42
  TRACK 27 AUDIO
    TITLE "P1Q_t_0839-0848_27"
    INDEX 01 00:38:66
  TRACK 28 AUDIO
    TITLE "P1Q_t_0839-0848_28"
    INDEX 01 00:40:00
  TRACK 29 AUDIO
    TITLE "P1Q_t_0839-0848_29"
    INDEX 01 00:40:22
  TRACK 30 AUDIO
    TITLE "P1Q_t_0839-0848_30"
    INDEX 01 00:44:70
  TRACK 31 AUDIO
    TITLE "P1Q_t_0839-0848_31"
    INDEX 01 00:45:40
  TRACK 32 AUDIO
    TITLE "P1Q_t_0839-0848_32"
    INDEX 01 00:46:54
  TRACK 33 AUDIO
    TITLE "P1Q_t_0839-0848_33"
    INDEX 01 00:47:02
  TRACK 34 AUDIO
    TITLE "P1Q_t_0839-0848_34"
    INDEX 01 00:52:01
  TRACK 35 AUDIO
    TITLE "P1Q_t_0839-0848_35"
    INDEX 01 00:52:21
  TRACK 36 AUDIO
    TITLE "P1Q_t_0839-0848_36"
    INDEX 01 00:58:21
  TRACK 37 AUDIO
    TITLE "P1Q_t_0839-0848_37"
    INDEX 01 00:58:68
  TRACK 38 AUDIO
    TITLE "P1Q_t_0839-0848_38"
    INDEX 01 01:00:18
  TRACK 39 AUDIO
    TITLE "P1Q_t_0839-0848_39"
    INDEX 01 01:00:40
  TRACK 40 AUDIO
    TITLE "P1Q_t_0839-0848_40"
    INDEX 01 01:02:29
  TRACK 41 AUDIO
    TITLE "P1Q_t_0839-0848_41"
    INDEX 01 01:02:49
  TRACK 42 AUDIO
    TITLE "P1Q_t_0839-0848_42"
    INDEX 01 01:07:03
  TRACK 43 AUDIO
    TITLE "P1Q_t_0839-0848_43"
    INDEX 01 01:07:48
  TRACK 44 AUDIO
    TITLE "P1Q_t_0839-0848_44"
    INDEX 01 01:08:59
  TRACK 45 AUDIO
    TITLE "P1Q_t_0839-0848_45"
    INDEX 01 01:09:10
  TRACK 46 AUDIO
    TITLE "P1Q_t_0839-0848_46"
    INDEX 01 01:10:72
  TRACK 47 AUDIO
    TITLE "P1Q_t_0839-0848_47"
    INDEX 01 01:11:18
  TRACK 48 AUDIO
    TITLE "P1Q_t_0839-0848_48"
    INDEX 01 01:16:27
  TRACK 49 AUDIO
    TITLE "P1Q_t_0839-0848_49"
    INDEX 01 01:16:74
  TRACK 50 AUDIO
    TITLE "P1Q_t_0839-0848_50"
    INDEX 01 01:18:16
  TRACK 51 AUDIO
    TITLE "P1Q_t_0839-0848_51"
    INDEX 01 01:18:40
  TRACK 52 AUDIO
    TITLE "P1Q_t_0839-0848_52"
    INDEX 01 01:20:45
  TRACK 53 AUDIO
    TITLE "P1Q_t_0839-0848_53"
    INDEX 01 01:20:64
  TRACK 54 AUDIO
    TITLE "P1Q_t_0839-0848_54"
    INDEX 01 01:25:52
  TRACK 55 AUDIO
    TITLE "P1Q_t_0839-0848_55"
    INDEX 01 01:26:22
  TRACK 56 AUDIO
    TITLE "P1Q_t_0839-0848_56"
    INDEX 01 01:27:58
  TRACK 57 AUDIO
    TITLE "P1Q_t_0839-0848_57"
    INDEX 01 01:28:05
  TRACK 58 AUDIO
    TITLE "P1Q_t_0839-0848_58"
    INDEX 01 01:30:16
  TRACK 59 AUDIO
    TITLE "P1Q_t_0839-0848_59"
    INDEX 01 01:30:37
  TRACK 60 AUDIO
    TITLE "P1Q_t_0839-0848_60"
    INDEX 01 01:35:23
